{"title":"Suddenly 2013 R5 DVDrip Xvid Ac3-MiLLENiUM [P2PDL]","uid":9368219,"size":1445569984,"categoryP":"video","categoryS":"movies","magnet":"?xt=urn:btih:290637bb7a9880deff277147b27f4aa2e00b72df&amp;dn=Suddenly+2013+R5+DVDrip+Xvid+Ac3-MiLLENiUM+%5BP2PDL%5D&amp;tr=udp%3A%2F%2Ftracker.openbittorrent.com%3A80&amp;tr=udp%3A%2F%2Fopen.demonii.com%3A1337&amp;tr=udp%3A%2F%2Ftracker.coppersurfer.tk%3A6969&amp;tr=udp%3A%2F%2Fexodus.desync.com%3A6969","seeders":0,"leechers":1,"uploader":"TeX","files":3,"time":1387472169,"description":"Suddenly 2013 R5 DVDrip Xvid Ac3-MiLLENiUM &lt;a href=&quot;\nhttp://www.imdb.com/title/tt2569236/&quot; rel=&quot;nofollow&quot; target=&quot;_NEW&quot;&gt;\nhttp://www.imdb.com/title/tt2569236/&lt;/a&gt;\nGeneral\nComplete name                            : Suddenly 2013 R5 DVDrip Xvid Ac3-MiLLENiUM.avi\nsource                                   : DVD5 [thanks]\nFormat                                   : AVI\nFormat/Info                              : Audio Video Interleave\nFile size                                : 1.30 GiB\nDuration                                 : 1h 30mn\nOverall bit rate                         : 2 068 Kbps\n\nVideo\nID                                       : 0\nFormat                                   : MPEG-4 Visual\nFormat profile                           : Advanced Simple@L5\nFormat settings, BVOP                    : 1\nFormat settings, QPel                    : No\nFormat settings, GMC                     : No warppoints\nFormat settings, Matrix                  : Default (H.263)\nCodec ID                                 : XVID\nCodec ID/Hint                            : XviD\nDuration                                 : 1h 30mn\nBit rate                                 : 1 676 Kbps\nWidth                                    : 720 pixels\nHeight                                   : 384 pixels\nDisplay aspect ratio                     : 1.875\nFrame rate                               : 25.000 fps\nColor space                              : YUV\nChroma subsampling                       : 4:2:0\nBit depth                                : 8 bits\nScan type                                : Progressive\nCompression mode                         : Lossy\nBits/(Pixel*Frame)                       : 0.243\nStream size                              : 1.06 GiB (81%)\nWriting library                          : XviD 1.2.1 (UTC 2008-12-04)\n\nAudio\nID                                       : 1\nFormat                                   : AC-3\nFormat/Info                              : Audio Coding 3\nMode extension                           : CM (complete main)\nCodec ID                                 : 2000\nDuration                                 : 1h 30mn\nBit rate mode                            : Constant\nBit rate                                 : 384 Kbps\nChannel(s)                               : 6 channels\nChannel positions                        : Front: L C R, Side: L R, LFE\nSampling rate                            : 48.0 KHz\nBit depth                                : 16 bits\nCompression mode                         : Lossy\nStream size                              : 248 MiB (19%)\nAlignment                                : Aligned on interleaves\nInterleave, duration                     : 64 ms (1.60 video frames)\nInterleave, preload duration             : 192 ms","torrent":{"xt":"urn:btih:290637bb7a9880deff277147b27f4aa2e00b72df","amp;dn":"Suddenly+2013+R5+DVDrip+Xvid+Ac3-MiLLENiUM+%5BP2PDL%5D","amp;tr":["udp%3A%2F%2Ftracker.openbittorrent.com%3A80","udp%3A%2F%2Fopen.demonii.com%3A1337","udp%3A%2F%2Ftracker.coppersurfer.tk%3A6969","udp%3A%2F%2Fexodus.desync.com%3A6969"],"infoHash":"290637bb7a9880deff277147b27f4aa2e00b72df","infoHashBuffer":{"type":"Buffer","data":[41,6,55,187,122,152,128,222,255,39,113,71,178,127,74,162,224,11,114,223]},"announce":[],"urlList":[]}}